%TF.GenerationSoftware,KiCad,Pcbnew,(6.0.8)*%
%TF.CreationDate,2022-11-07T12:30:50+02:00*%
%TF.ProjectId,inzynierka,696e7a79-6e69-4657-926b-612e6b696361,rev?*%
%TF.SameCoordinates,Original*%
%TF.FileFunction,Soldermask,Bot*%
%TF.FilePolarity,Negative*%
%FSLAX46Y46*%
G04 Gerber Fmt 4.6, Leading zero omitted, Abs format (unit mm)*
G04 Created by KiCad (PCBNEW (6.0.8)) date 2022-11-07 12:30:50*
%MOMM*%
%LPD*%
G01*
G04 APERTURE LIST*
%ADD10C,3.200000*%
%ADD11R,1.700000X1.700000*%
%ADD12O,1.700000X1.700000*%
%ADD13C,0.610000*%
%ADD14C,0.500000*%
%ADD15C,2.200000*%
%ADD16R,2.000000X2.000000*%
%ADD17C,2.000000*%
%ADD18O,2.500000X1.524000*%
G04 APERTURE END LIST*
D10*
%TO.C,H101*%
X114890000Y-134510000D03*
%TD*%
D11*
%TO.C,J104*%
X128860000Y-132732000D03*
D12*
X131400000Y-132732000D03*
%TD*%
D10*
%TO.C,H102*%
X86950000Y-134510000D03*
%TD*%
D13*
%TO.C,U201*%
X104792000Y-51980106D03*
%TD*%
D14*
%TO.C,mouse-bite-2mm-slot*%
X115402333Y-59916106D03*
X115402333Y-59166106D03*
X116902333Y-60666106D03*
X115402333Y-60666106D03*
X116902333Y-59916106D03*
X116902333Y-59166106D03*
%TD*%
D10*
%TO.C,H104*%
X81870000Y-82440000D03*
%TD*%
D13*
%TO.C,U401*%
X104792000Y-56980106D03*
%TD*%
D14*
%TO.C,mouse-bite-2mm-slot*%
X123260000Y-62870000D03*
X121760000Y-61370000D03*
X121760000Y-62870000D03*
X122510000Y-62870000D03*
X122510000Y-61370000D03*
X123260000Y-61370000D03*
%TD*%
D10*
%TO.C,H103*%
X130130000Y-83710000D03*
%TD*%
D14*
%TO.C,mouse-bite-2mm-slot*%
X97860000Y-78134000D03*
X96360000Y-78134000D03*
X97110000Y-78134000D03*
X96360000Y-79634000D03*
X97860000Y-79634000D03*
X97110000Y-79634000D03*
%TD*%
D15*
%TO.C,H105*%
X92792000Y-63980106D03*
%TD*%
D16*
%TO.C,BZ101*%
X118700000Y-70502000D03*
D17*
X126300000Y-70502000D03*
%TD*%
D14*
%TO.C,mouse-bite-2mm-slot*%
X122510000Y-79634000D03*
X121760000Y-78134000D03*
X122510000Y-78134000D03*
X123260000Y-78134000D03*
X123260000Y-79634000D03*
X121760000Y-79634000D03*
%TD*%
D18*
%TO.C,T501*%
X124542000Y-98014000D03*
D17*
X131042000Y-106514000D03*
X131042000Y-99514000D03*
X118042000Y-99514000D03*
X118042000Y-106514000D03*
%TD*%
D13*
%TO.C,U301*%
X99792000Y-51980106D03*
%TD*%
D11*
%TO.C,J102*%
X135210000Y-86250000D03*
D12*
X137750000Y-86250000D03*
X135210000Y-88790000D03*
X137750000Y-88790000D03*
X135210000Y-91330000D03*
X137750000Y-91330000D03*
X135210000Y-93870000D03*
X137750000Y-93870000D03*
X135210000Y-96410000D03*
X137750000Y-96410000D03*
X135210000Y-98950000D03*
X137750000Y-98950000D03*
X135210000Y-101490000D03*
X137750000Y-101490000D03*
X135210000Y-104030000D03*
X137750000Y-104030000D03*
X135210000Y-106570000D03*
X137750000Y-106570000D03*
X135210000Y-109110000D03*
X137750000Y-109110000D03*
X135210000Y-111650000D03*
X137750000Y-111650000D03*
X135210000Y-114190000D03*
X137750000Y-114190000D03*
X135210000Y-116730000D03*
X137750000Y-116730000D03*
X135210000Y-119270000D03*
X137750000Y-119270000D03*
X135210000Y-121810000D03*
X137750000Y-121810000D03*
X135210000Y-124350000D03*
X137750000Y-124350000D03*
X135210000Y-126890000D03*
X137750000Y-126890000D03*
X135210000Y-129430000D03*
X137750000Y-129430000D03*
X135210000Y-131970000D03*
X137750000Y-131970000D03*
%TD*%
D11*
%TO.C,J101*%
X74250000Y-86250000D03*
D12*
X76790000Y-86250000D03*
X74250000Y-88790000D03*
X76790000Y-88790000D03*
X74250000Y-91330000D03*
X76790000Y-91330000D03*
X74250000Y-93870000D03*
X76790000Y-93870000D03*
X74250000Y-96410000D03*
X76790000Y-96410000D03*
X74250000Y-98950000D03*
X76790000Y-98950000D03*
X74250000Y-101490000D03*
X76790000Y-101490000D03*
X74250000Y-104030000D03*
X76790000Y-104030000D03*
X74250000Y-106570000D03*
X76790000Y-106570000D03*
X74250000Y-109110000D03*
X76790000Y-109110000D03*
X74250000Y-111650000D03*
X76790000Y-111650000D03*
X74250000Y-114190000D03*
X76790000Y-114190000D03*
X74250000Y-116730000D03*
X76790000Y-116730000D03*
X74250000Y-119270000D03*
X76790000Y-119270000D03*
X74250000Y-121810000D03*
X76790000Y-121810000D03*
X74250000Y-124350000D03*
X76790000Y-124350000D03*
X74250000Y-126890000D03*
X76790000Y-126890000D03*
X74250000Y-129430000D03*
X76790000Y-129430000D03*
X74250000Y-131970000D03*
X76790000Y-131970000D03*
%TD*%
M02*
