M48
; DRILL file {KiCad (6.0.8)} date pon, 7 lis 2022, 12:18:00
; FORMAT={-:-/ absolute / inch / decimal}
; #@! TF.CreationDate,2022-11-07T12:18:00+02:00
; #@! TF.GenerationSoftware,Kicad,Pcbnew,(6.0.8)
; #@! TF.FileFunction,NonPlated,1,2,NPTH
FMAT,2
INCH
; #@! TA.AperFunction,NonPlated,NPTH,ComponentDrill
T1C0.0197
; #@! TA.AperFunction,NonPlated,NPTH,ComponentDrill
T2C0.0240
; #@! TA.AperFunction,NonPlated,NPTH,ComponentDrill
T3C0.0866
; #@! TA.AperFunction,NonPlated,NPTH,ComponentDrill
T4C0.1260
%
G90
G05
T1
X3.7937Y-3.0761
X3.7937Y-3.1352
X3.8232Y-3.0761
X3.8232Y-3.1352
X3.8528Y-3.0761
X3.8528Y-3.1352
X4.5434Y-2.3294
X4.5434Y-2.3589
X4.5434Y-2.3884
X4.6025Y-2.3294
X4.6025Y-2.3589
X4.6025Y-2.3884
X4.7937Y-2.4161
X4.7937Y-2.4752
X4.7937Y-3.0761
X4.7937Y-3.1352
X4.8232Y-2.4161
X4.8232Y-2.4752
X4.8232Y-3.0761
X4.8232Y-3.1352
X4.8528Y-2.4161
X4.8528Y-2.4752
X4.8528Y-3.0761
X4.8528Y-3.1352
T2
X3.9288Y-2.0465
X4.1257Y-2.0465
X4.1257Y-2.2433
T3
X3.6532Y-2.5189
T4
X3.2232Y-3.2457
X3.4232Y-5.2957
X4.5232Y-5.2957
X5.1232Y-3.2957
T0
M30
