%TF.GenerationSoftware,KiCad,Pcbnew,(6.0.8)*%
%TF.CreationDate,2022-11-07T12:18:00+02:00*%
%TF.ProjectId,inzynierka,696e7a79-6e69-4657-926b-612e6b696361,rev?*%
%TF.SameCoordinates,Original*%
%TF.FileFunction,Paste,Top*%
%TF.FilePolarity,Positive*%
%FSLAX46Y46*%
G04 Gerber Fmt 4.6, Leading zero omitted, Abs format (unit mm)*
G04 Created by KiCad (PCBNEW (6.0.8)) date 2022-11-07 12:18:00*
%MOMM*%
%LPD*%
G01*
G04 APERTURE LIST*
G04 Aperture macros list*
%AMRoundRect*
0 Rectangle with rounded corners*
0 $1 Rounding radius*
0 $2 $3 $4 $5 $6 $7 $8 $9 X,Y pos of 4 corners*
0 Add a 4 corners polygon primitive as box body*
4,1,4,$2,$3,$4,$5,$6,$7,$8,$9,$2,$3,0*
0 Add four circle primitives for the rounded corners*
1,1,$1+$1,$2,$3*
1,1,$1+$1,$4,$5*
1,1,$1+$1,$6,$7*
1,1,$1+$1,$8,$9*
0 Add four rect primitives between the rounded corners*
20,1,$1+$1,$2,$3,$4,$5,0*
20,1,$1+$1,$4,$5,$6,$7,0*
20,1,$1+$1,$6,$7,$8,$9,0*
20,1,$1+$1,$8,$9,$2,$3,0*%
G04 Aperture macros list end*
%ADD10R,1.700000X1.000000*%
%ADD11RoundRect,0.225000X0.225000X0.250000X-0.225000X0.250000X-0.225000X-0.250000X0.225000X-0.250000X0*%
%ADD12RoundRect,0.200000X-0.275000X0.200000X-0.275000X-0.200000X0.275000X-0.200000X0.275000X0.200000X0*%
%ADD13RoundRect,0.200000X-0.200000X-0.275000X0.200000X-0.275000X0.200000X0.275000X-0.200000X0.275000X0*%
%ADD14RoundRect,0.150000X0.587500X0.150000X-0.587500X0.150000X-0.587500X-0.150000X0.587500X-0.150000X0*%
%ADD15RoundRect,0.218750X-0.256250X0.218750X-0.256250X-0.218750X0.256250X-0.218750X0.256250X0.218750X0*%
%ADD16RoundRect,0.225000X-0.225000X-0.250000X0.225000X-0.250000X0.225000X0.250000X-0.225000X0.250000X0*%
%ADD17RoundRect,0.250000X0.550000X-1.050000X0.550000X1.050000X-0.550000X1.050000X-0.550000X-1.050000X0*%
%ADD18RoundRect,0.225000X0.250000X-0.225000X0.250000X0.225000X-0.250000X0.225000X-0.250000X-0.225000X0*%
%ADD19R,1.500000X2.000000*%
%ADD20R,3.800000X2.000000*%
%ADD21RoundRect,0.200000X0.275000X-0.200000X0.275000X0.200000X-0.275000X0.200000X-0.275000X-0.200000X0*%
%ADD22RoundRect,0.225000X-0.250000X0.225000X-0.250000X-0.225000X0.250000X-0.225000X0.250000X0.225000X0*%
%ADD23C,0.723000*%
%ADD24C,0.562000*%
%ADD25C,0.612000*%
%ADD26C,1.224000*%
%ADD27RoundRect,0.200000X0.200000X0.275000X-0.200000X0.275000X-0.200000X-0.275000X0.200000X-0.275000X0*%
%ADD28RoundRect,0.218750X0.218750X0.256250X-0.218750X0.256250X-0.218750X-0.256250X0.218750X-0.256250X0*%
%ADD29RoundRect,0.150000X0.150000X-0.825000X0.150000X0.825000X-0.150000X0.825000X-0.150000X-0.825000X0*%
%ADD30R,0.600000X0.450000*%
%ADD31R,0.300000X1.300000*%
%ADD32R,1.800000X2.200000*%
%ADD33R,0.450000X0.600000*%
%ADD34R,1.300000X0.300000*%
%ADD35R,2.200000X1.800000*%
G04 APERTURE END LIST*
D10*
%TO.C,SW101*%
X84850000Y-91102000D03*
X91150000Y-91102000D03*
X91150000Y-94902000D03*
X84850000Y-94902000D03*
%TD*%
D11*
%TO.C,C310*%
X103025000Y-114700000D03*
X101475000Y-114700000D03*
%TD*%
%TO.C,C203*%
X85025000Y-129250000D03*
X83475000Y-129250000D03*
%TD*%
D12*
%TO.C,R501*%
X121494000Y-92791000D03*
X121494000Y-94441000D03*
%TD*%
D13*
%TO.C,R306*%
X106425000Y-114700000D03*
X108075000Y-114700000D03*
%TD*%
D14*
%TO.C,Q501*%
X118875500Y-94566000D03*
X118875500Y-92666000D03*
X117000500Y-93616000D03*
%TD*%
D13*
%TO.C,R503*%
X112527333Y-90316106D03*
X114177333Y-90316106D03*
%TD*%
D15*
%TO.C,D102*%
X118252333Y-81912500D03*
X118252333Y-83487500D03*
%TD*%
D16*
%TO.C,C409*%
X123475000Y-113200000D03*
X125025000Y-113200000D03*
%TD*%
D17*
%TO.C,C104*%
X106209500Y-86033000D03*
X106209500Y-82433000D03*
%TD*%
D12*
%TO.C,R205*%
X87500000Y-111675000D03*
X87500000Y-113325000D03*
%TD*%
D18*
%TO.C,C402*%
X115750000Y-120475000D03*
X115750000Y-118925000D03*
%TD*%
D17*
%TO.C,C101*%
X90209500Y-86170500D03*
X90209500Y-82570500D03*
%TD*%
D19*
%TO.C,U101*%
X100509500Y-82633000D03*
D20*
X98209500Y-88933000D03*
D19*
X98209500Y-82633000D03*
X95909500Y-82633000D03*
%TD*%
D16*
%TO.C,C209*%
X89475000Y-113250000D03*
X91025000Y-113250000D03*
%TD*%
D21*
%TO.C,R502*%
X128052333Y-93641106D03*
X128052333Y-91991106D03*
%TD*%
D13*
%TO.C,R302*%
X100425000Y-124700000D03*
X102075000Y-124700000D03*
%TD*%
D18*
%TO.C,C102*%
X93459500Y-86895500D03*
X93459500Y-85345500D03*
%TD*%
%TO.C,C204*%
X87152333Y-128791106D03*
X87152333Y-127241106D03*
%TD*%
D22*
%TO.C,C112*%
X81250000Y-95675000D03*
X81250000Y-97225000D03*
%TD*%
D23*
%TO.C,U201*%
X106895000Y-51014106D03*
D24*
X104158000Y-50965106D03*
X104158000Y-52995106D03*
D23*
X106895000Y-52946106D03*
D25*
X106895000Y-51980106D03*
D26*
X104792000Y-51980106D03*
%TD*%
D16*
%TO.C,C205*%
X83475000Y-126250000D03*
X85025000Y-126250000D03*
%TD*%
%TO.C,C207*%
X89475000Y-126250000D03*
X91025000Y-126250000D03*
%TD*%
D21*
%TO.C,R110*%
X121752333Y-83525000D03*
X121752333Y-81875000D03*
%TD*%
%TO.C,R111*%
X81250000Y-94275000D03*
X81250000Y-92625000D03*
%TD*%
D12*
%TO.C,R106*%
X85500000Y-104125000D03*
X85500000Y-105775000D03*
%TD*%
D16*
%TO.C,C305*%
X100475000Y-126200000D03*
X102025000Y-126200000D03*
%TD*%
D21*
%TO.C,R102*%
X103936000Y-107715000D03*
X103936000Y-106065000D03*
%TD*%
D27*
%TO.C,R203*%
X91075000Y-127750000D03*
X89425000Y-127750000D03*
%TD*%
D16*
%TO.C,C107*%
X90945000Y-107330000D03*
X92495000Y-107330000D03*
%TD*%
D13*
%TO.C,R202*%
X83425000Y-124750000D03*
X85075000Y-124750000D03*
%TD*%
D18*
%TO.C,C202*%
X81750000Y-120525000D03*
X81750000Y-118975000D03*
%TD*%
D15*
%TO.C,D101*%
X113250000Y-81912500D03*
X113250000Y-83487500D03*
%TD*%
D28*
%TO.C,D502*%
X114139833Y-91816106D03*
X112564833Y-91816106D03*
%TD*%
D11*
%TO.C,C408*%
X125025000Y-111700000D03*
X123475000Y-111700000D03*
%TD*%
D16*
%TO.C,C405*%
X117475000Y-126200000D03*
X119025000Y-126200000D03*
%TD*%
%TO.C,C309*%
X106475000Y-113200000D03*
X108025000Y-113200000D03*
%TD*%
D23*
%TO.C,U401*%
X106895000Y-56014106D03*
D24*
X104158000Y-55965106D03*
X104158000Y-57995106D03*
D23*
X106895000Y-57946106D03*
D25*
X106895000Y-56980106D03*
D26*
X104792000Y-56980106D03*
%TD*%
D21*
%TO.C,R104*%
X84000000Y-102775000D03*
X84000000Y-101125000D03*
%TD*%
D12*
%TO.C,R105*%
X85500000Y-101125000D03*
X85500000Y-102775000D03*
%TD*%
D18*
%TO.C,C401*%
X110292000Y-58255106D03*
X110292000Y-56705106D03*
%TD*%
D13*
%TO.C,R204*%
X89425000Y-124750000D03*
X91075000Y-124750000D03*
%TD*%
D29*
%TO.C,U402*%
X117440000Y-122175000D03*
X118710000Y-122175000D03*
X119980000Y-122175000D03*
X121250000Y-122175000D03*
X122520000Y-122175000D03*
X123790000Y-122175000D03*
X125060000Y-122175000D03*
X125060000Y-117225000D03*
X123790000Y-117225000D03*
X122520000Y-117225000D03*
X121250000Y-117225000D03*
X119980000Y-117225000D03*
X118710000Y-117225000D03*
X117440000Y-117225000D03*
%TD*%
D22*
%TO.C,C301*%
X94292000Y-50705106D03*
X94292000Y-52255106D03*
%TD*%
D18*
%TO.C,C304*%
X104250000Y-128475000D03*
X104250000Y-126925000D03*
%TD*%
D29*
%TO.C,U102*%
X87410000Y-104095000D03*
X88680000Y-104095000D03*
X89950000Y-104095000D03*
X91220000Y-104095000D03*
X92490000Y-104095000D03*
X93760000Y-104095000D03*
X95030000Y-104095000D03*
X95030000Y-99145000D03*
X93760000Y-99145000D03*
X92490000Y-99145000D03*
X91220000Y-99145000D03*
X89950000Y-99145000D03*
X88680000Y-99145000D03*
X87410000Y-99145000D03*
%TD*%
D16*
%TO.C,C406*%
X123475000Y-129200000D03*
X125025000Y-129200000D03*
%TD*%
D27*
%TO.C,R401*%
X119075000Y-127700000D03*
X117425000Y-127700000D03*
%TD*%
D12*
%TO.C,R103*%
X103936000Y-94065000D03*
X103936000Y-95715000D03*
%TD*%
D21*
%TO.C,R107*%
X111750000Y-83525000D03*
X111750000Y-81875000D03*
%TD*%
D14*
%TO.C,Q502*%
X125987500Y-94566000D03*
X125987500Y-92666000D03*
X124112500Y-93616000D03*
%TD*%
D18*
%TO.C,C201*%
X110292000Y-53255106D03*
X110292000Y-51705106D03*
%TD*%
%TO.C,C404*%
X121250000Y-128725000D03*
X121250000Y-127175000D03*
%TD*%
D12*
%TO.C,R405*%
X121500000Y-111625000D03*
X121500000Y-113275000D03*
%TD*%
D18*
%TO.C,C103*%
X102959500Y-86758000D03*
X102959500Y-85208000D03*
%TD*%
D11*
%TO.C,C410*%
X120025000Y-114700000D03*
X118475000Y-114700000D03*
%TD*%
%TO.C,C308*%
X108025000Y-111700000D03*
X106475000Y-111700000D03*
%TD*%
D16*
%TO.C,C307*%
X106475000Y-126200000D03*
X108025000Y-126200000D03*
%TD*%
D29*
%TO.C,U302*%
X100440000Y-122175000D03*
X101710000Y-122175000D03*
X102980000Y-122175000D03*
X104250000Y-122175000D03*
X105520000Y-122175000D03*
X106790000Y-122175000D03*
X108060000Y-122175000D03*
X108060000Y-117225000D03*
X106790000Y-117225000D03*
X105520000Y-117225000D03*
X104250000Y-117225000D03*
X102980000Y-117225000D03*
X101710000Y-117225000D03*
X100440000Y-117225000D03*
%TD*%
D27*
%TO.C,R403*%
X125075000Y-127700000D03*
X123425000Y-127700000D03*
%TD*%
D11*
%TO.C,C210*%
X86025000Y-114750000D03*
X84475000Y-114750000D03*
%TD*%
D18*
%TO.C,C302*%
X98750000Y-120475000D03*
X98750000Y-118925000D03*
%TD*%
D29*
%TO.C,U103*%
X104126000Y-103365000D03*
X105396000Y-103365000D03*
X106666000Y-103365000D03*
X107936000Y-103365000D03*
X109206000Y-103365000D03*
X110476000Y-103365000D03*
X111746000Y-103365000D03*
X111746000Y-98415000D03*
X110476000Y-98415000D03*
X109206000Y-98415000D03*
X107936000Y-98415000D03*
X106666000Y-98415000D03*
X105396000Y-98415000D03*
X104126000Y-98415000D03*
%TD*%
D27*
%TO.C,R301*%
X102075000Y-127700000D03*
X100425000Y-127700000D03*
%TD*%
D16*
%TO.C,C306*%
X106475000Y-129200000D03*
X108025000Y-129200000D03*
%TD*%
D21*
%TO.C,R108*%
X116752333Y-83525000D03*
X116752333Y-81875000D03*
%TD*%
D16*
%TO.C,C407*%
X123475000Y-126200000D03*
X125025000Y-126200000D03*
%TD*%
%TO.C,C206*%
X89475000Y-129250000D03*
X91025000Y-129250000D03*
%TD*%
D30*
%TO.C,D501*%
X116888000Y-90822000D03*
X118988000Y-90822000D03*
%TD*%
D13*
%TO.C,R402*%
X117425000Y-124700000D03*
X119075000Y-124700000D03*
%TD*%
D15*
%TO.C,D103*%
X97152333Y-95253606D03*
X97152333Y-96828606D03*
%TD*%
D13*
%TO.C,R406*%
X123425000Y-114700000D03*
X125075000Y-114700000D03*
%TD*%
D15*
%TO.C,D104*%
X123252333Y-81912500D03*
X123252333Y-83487500D03*
%TD*%
D12*
%TO.C,R305*%
X104500000Y-111625000D03*
X104500000Y-113275000D03*
%TD*%
D16*
%TO.C,C403*%
X117475000Y-129200000D03*
X119025000Y-129200000D03*
%TD*%
D21*
%TO.C,R109*%
X98652333Y-96866106D03*
X98652333Y-95216106D03*
%TD*%
D13*
%TO.C,R206*%
X89425000Y-114750000D03*
X91075000Y-114750000D03*
%TD*%
%TO.C,R404*%
X123425000Y-124700000D03*
X125075000Y-124700000D03*
%TD*%
D18*
%TO.C,C501*%
X132500000Y-93691106D03*
X132500000Y-92141106D03*
%TD*%
D27*
%TO.C,R303*%
X108075000Y-127700000D03*
X106425000Y-127700000D03*
%TD*%
D31*
%TO.C,J106*%
X93844000Y-132726000D03*
X94344000Y-132726000D03*
X94844000Y-132726000D03*
X95344000Y-132726000D03*
X95844000Y-132726000D03*
X96344000Y-132726000D03*
X96844000Y-132726000D03*
X97344000Y-132726000D03*
X97844000Y-132726000D03*
X98344000Y-132726000D03*
D32*
X100244000Y-135976000D03*
X91944000Y-135976000D03*
%TD*%
D33*
%TO.C,D503*%
X130252333Y-91766106D03*
X130252333Y-93866106D03*
%TD*%
D13*
%TO.C,R304*%
X106425000Y-124700000D03*
X108075000Y-124700000D03*
%TD*%
D12*
%TO.C,R112*%
X81250000Y-89625000D03*
X81250000Y-91275000D03*
%TD*%
D22*
%TO.C,C105*%
X97750000Y-103175000D03*
X97750000Y-104725000D03*
%TD*%
D21*
%TO.C,R101*%
X105436000Y-107715000D03*
X105436000Y-106065000D03*
%TD*%
D29*
%TO.C,U202*%
X83440000Y-122225000D03*
X84710000Y-122225000D03*
X85980000Y-122225000D03*
X87250000Y-122225000D03*
X88520000Y-122225000D03*
X89790000Y-122225000D03*
X91060000Y-122225000D03*
X91060000Y-117275000D03*
X89790000Y-117275000D03*
X88520000Y-117275000D03*
X87250000Y-117275000D03*
X85980000Y-117275000D03*
X84710000Y-117275000D03*
X83440000Y-117275000D03*
%TD*%
D34*
%TO.C,J105*%
X103732249Y-67917857D03*
X103732249Y-67417857D03*
X103732249Y-66917857D03*
X103732249Y-66417857D03*
X103732249Y-65917857D03*
X103732249Y-65417857D03*
X103732249Y-64917857D03*
X103732249Y-64417857D03*
X103732249Y-63917857D03*
X103732249Y-63417857D03*
D35*
X106982249Y-61517857D03*
X106982249Y-69817857D03*
%TD*%
D18*
%TO.C,C106*%
X102436000Y-100915000D03*
X102436000Y-99365000D03*
%TD*%
D23*
%TO.C,U301*%
X97689000Y-52946106D03*
D24*
X100426000Y-52995106D03*
X100426000Y-50965106D03*
D23*
X97689000Y-51014106D03*
D25*
X97689000Y-51980106D03*
D26*
X99792000Y-51980106D03*
%TD*%
D27*
%TO.C,R201*%
X85075000Y-127750000D03*
X83425000Y-127750000D03*
%TD*%
D22*
%TO.C,C108*%
X84000000Y-104175000D03*
X84000000Y-105725000D03*
%TD*%
D11*
%TO.C,C208*%
X91025000Y-111750000D03*
X89475000Y-111750000D03*
%TD*%
D16*
%TO.C,C303*%
X100475000Y-129200000D03*
X102025000Y-129200000D03*
%TD*%
M02*
