M48
; DRILL file {KiCad (6.0.8)} date pon, 7 lis 2022, 12:30:50
; FORMAT={-:-/ absolute / inch / decimal}
; #@! TF.CreationDate,2022-11-07T12:30:50+02:00
; #@! TF.GenerationSoftware,Kicad,Pcbnew,(6.0.8)
; #@! TF.FileFunction,Plated,1,2,PTH
FMAT,2
INCH
; #@! TA.AperFunction,Plated,PTH,ViaDrill
T1C0.0098
; #@! TA.AperFunction,Plated,PTH,ViaDrill
T2C0.0157
; #@! TA.AperFunction,Plated,PTH,ViaDrill
T3C0.0197
; #@! TA.AperFunction,Plated,PTH,ComponentDrill
T4C0.0300
; #@! TA.AperFunction,Plated,PTH,ComponentDrill
T5C0.0394
%
G90
G05
T1
X3.1398Y-4.3583
X3.1832Y-4.4231
X3.2232Y-4.3437
X3.3232Y-4.2957
X3.3232Y-4.3257
X3.3532Y-4.3483
X4.1043Y-4.7028
X4.2032Y-4.2457
X4.4488Y-4.7717
T2
X3.2658Y-3.4928
X3.2732Y-4.7257
X3.2972Y-4.5453
X3.3563Y-3.9055
X3.376Y-4.4567
X3.4332Y-4.7457
X3.4547Y-4.5256
X3.4744Y-5.0177
X3.4843Y-3.9646
X3.5236Y-4.2303
X3.5925Y-3.9646
X3.6714Y-3.4731
X3.6811Y-4.1909
X3.7032Y-5.1742
X3.7992Y-5.3228
X3.8488Y-3.9256
X3.8603Y-4.0124
X3.9272Y-3.9449
X3.9432Y-4.7357
X4.0354Y-3.8563
X4.0354Y-4.4567
X4.1032Y-4.7457
X4.124Y-4.5256
X4.1437Y-5.0276
X4.2421Y-3.9547
X4.2815Y-3.4626
X4.384Y-3.3707
X4.5132Y-4.7257
X4.6063Y-4.5157
X4.6654Y-3.5118
X4.7732Y-4.7457
X4.7736Y-4.6929
X4.7933Y-4.5256
X4.813Y-5.0374
T3
X3.8386Y-4.7421
X3.9732Y-3.9957
X4.1732Y-3.5557
X4.1732Y-3.5957
T5
X2.9232Y-3.3957
X2.9232Y-3.4957
X2.9232Y-3.5957
X2.9232Y-3.6957
X2.9232Y-3.7957
X2.9232Y-3.8957
X2.9232Y-3.9957
X2.9232Y-4.0957
X2.9232Y-4.1957
X2.9232Y-4.2957
X2.9232Y-4.3957
X2.9232Y-4.4957
X2.9232Y-4.5957
X2.9232Y-4.6957
X2.9232Y-4.7957
X2.9232Y-4.8957
X2.9232Y-4.9957
X2.9232Y-5.0957
X2.9232Y-5.1957
X3.0232Y-3.3957
X3.0232Y-3.4957
X3.0232Y-3.5957
X3.0232Y-3.6957
X3.0232Y-3.7957
X3.0232Y-3.8957
X3.0232Y-3.9957
X3.0232Y-4.0957
X3.0232Y-4.1957
X3.0232Y-4.2957
X3.0232Y-4.3957
X3.0232Y-4.4957
X3.0232Y-4.5957
X3.0232Y-4.6957
X3.0232Y-4.7957
X3.0232Y-4.8957
X3.0232Y-4.9957
X3.0232Y-5.0957
X3.0232Y-5.1957
X4.6473Y-3.9179
X4.6473Y-4.1935
X4.6732Y-2.7757
X4.9724Y-2.7757
X5.0732Y-5.2257
X5.1591Y-3.9179
X5.1591Y-4.1935
X5.1732Y-5.2257
X5.3232Y-3.3957
X5.3232Y-3.4957
X5.3232Y-3.5957
X5.3232Y-3.6957
X5.3232Y-3.7957
X5.3232Y-3.8957
X5.3232Y-3.9957
X5.3232Y-4.0957
X5.3232Y-4.1957
X5.3232Y-4.2957
X5.3232Y-4.3957
X5.3232Y-4.4957
X5.3232Y-4.5957
X5.3232Y-4.6957
X5.3232Y-4.7957
X5.3232Y-4.8957
X5.3232Y-4.9957
X5.3232Y-5.0957
X5.3232Y-5.1957
X5.4232Y-3.3957
X5.4232Y-3.4957
X5.4232Y-3.5957
X5.4232Y-3.6957
X5.4232Y-3.7957
X5.4232Y-3.8957
X5.4232Y-3.9957
X5.4232Y-4.0957
X5.4232Y-4.1957
X5.4232Y-4.2957
X5.4232Y-4.3957
X5.4232Y-4.4957
X5.4232Y-4.5957
X5.4232Y-4.6957
X5.4232Y-4.7957
X5.4232Y-4.8957
X5.4232Y-4.9957
X5.4232Y-5.0957
X5.4232Y-5.1957
T4
G00X4.9178Y-3.8588
M15
G01X4.8887Y-3.8588
M16
G05
T0
M30
